<?xml version="1.0" encoding="UTF-8"?>
<svg width="96px" height="96px" viewBox="0 0 96 96" version="1.1" xmlns="http://www.w3.org/2000/svg" xmlns:xlink="http://www.w3.org/1999/xlink">
    <g id="Page-1" stroke="none" stroke-width="1" fill="none" fill-rule="evenodd">
        <g id="link">
            <circle id="Oval-Copy-2" fill="#FFFFFF" cx="48" cy="48" r="48"></circle>
            <g id="info-copy" transform="translate(8.000000, 8.000000)" fill="#005DA8">
                <path d="M40,0 C17.9101613,0 0,17.9166129 0,40 C0,62.0962903 17.9101613,80 40,80 C62.0898387,80 80,62.0962903 80,40 C80,17.9166129 62.0898387,0 40,0 Z" id="Path"></path>
            </g>
            <path d="M49.6686021,24.7310962 L70.03448,45.0969742 C71.0197567,46.0822508 71.0197567,47.6754642 70.03448,48.6502591 L67.6551417,51.0295974 C66.6698651,52.0148741 65.0871334,52.0148741 64.1018568,51.0295974 L47.8867187,34.8983127 L31.6715807,51.0400791 C30.6863041,52.0148741 29.1035724,52.0148741 28.1182958,51.0400791 L25.7389575,48.6607408 C24.7536808,47.6754642 24.7536808,46.0822508 25.7389575,45.1074559 L46.1048354,24.7310962 C47.0901121,23.7563013 48.6833254,23.7563013 49.6686021,24.7310962 Z M46.1048354,44.8558959 L25.7389575,65.2322555 C24.7536808,66.2175321 24.7536808,67.8107455 25.7389575,68.7855404 L28.1182958,71.1648787 C29.1035724,72.1501554 30.6863041,72.1501554 31.6715807,71.1648787 L47.8867187,55.0231124 L64.1018568,71.1648787 C65.0871334,72.1396737 66.6698651,72.1396737 67.6551417,71.1648787 L70.03448,68.7855404 C71.0197567,67.8002638 71.0197567,66.2070505 70.03448,65.2322555 L49.6686021,44.8558959 C48.6833254,43.8811009 47.0901121,43.8811009 46.1048354,44.8558959 Z" id="Shape" fill="#FFFFFF" fill-rule="nonzero"></path>
        </g>
    </g>
</svg>
